<svg xmlns="http://www.w3.org/2000/svg" width="999.997" height="268.807" viewBox="0 0 999.997 268.807">
  <g id="그룹_1" data-name="그룹 1" transform="translate(-745 -447.869)">
    <path id="path14" d="M665.344,0H623.23V235.5q57.408,1.975,114.34,5.778V199.79q-36.014-2.4-72.226-4.083ZM1000,.022H953.744L923.263,70.694,895.851.022H850.294l48.96,126.287L845.794,250.2q22.175,2.163,44.262,4.607l31.081-72.035,30.787,79.407q24.057,3.093,48,6.491l.061-.027L945.159,127.159ZM478.7,233.448l42.112-.01v-95.8h57.084V96.146H520.808V41.886h75.445V.021H478.694ZM321.445,41.89h44.071V235.916q21.019-.793,42.111-1.333V41.888H451.7V.019H321.444ZM177.477,247.979q58.218-5.29,116.972-8.689v-41.5q-37.538,2.168-74.865,5.115V140.089c16.327-.163,37.824-.661,56.869-.424v-41.5c-15.214-.037-39.669.213-56.869.433V41.891h74.865V.026H177.477ZM94.865,152.057,40.022.022H0V268.675q21.015-2.991,42.111-5.736v-146.1L90.876,256.938q23.009-2.669,46.1-5.048V.019H94.862Zm677.448,91.728q21.091,1.614,42.114,3.478V.022H772.313V243.785" transform="translate(745 448.001)" fill="#db202c"/>
    <path id="패스_1" data-name="패스 1" d="M-.148.312,42,0V62H0Z" transform="matrix(0.469, 0.883, -0.883, 0.469, 1517.673, 448)" fill="#db202c"/>
  </g>
</svg>
